<svg xmlns="http://www.w3.org/2000/svg" color="black" width="16" height="16" viewBox="0 0 100 90" fill="none">
<path
                    d="M10 0C4.485 0 0 4.485 0 10V80C0 85.515 4.485 90 10 90H90C95.515 90 100 85.515 100 80V10C100 4.485 95.515 0 90 0H10ZM45 80H10V10H45V80ZM80 40C82.7614 40 85 42.2386 85 45C85 47.7614 82.7614 50 80 50H65C62.2386 50 60 47.7614 60 45C60 42.2386 62.2386 40 65 40H80ZM80 20C82.7614 20 85 22.2386 85 25C85 27.7614 82.7614 30 80 30H65C62.2386 30 60 27.7614 60 25C60 22.2386 62.2386 20 65 20H80Z"
                    fill="currentColor"
                  />
</svg>
